<svg width="228" height="24" viewBox="0 0 228 24" fill="none" xmlns="http://www.w3.org/2000/svg">
<g clip-path="url(#clip0_2_17)">
<path d="M7.40921 6.96619L0 6.99081V23.7046H7.40921C12.6277 23.7046 16.2461 20.1846 16.2461 15.3108C16.2461 10.4862 12.923 6.94158 7.40921 6.96619ZM4.03691 10.7077H7.40921C10.2646 10.7077 12.16 12.3077 12.16 15.3108C12.16 18.1169 10.2154 19.9631 7.40921 19.9631H4.03691V10.7077Z" fill="white"/>
<path d="M28.3076 6.96619V23.7046H41.1322V19.9631H32.3445V17.0831H39.6799V13.5877H32.3445V10.7077H41.1322V6.96619H28.3076Z" fill="white"/>
<path d="M59.9875 6.67078C56.1721 6.67078 53.169 8.93539 53.169 11.9877C53.169 15.7046 57.5751 16.64 60.0859 17.2308C61.6367 17.6 63.0398 17.9692 63.0398 19.0277C63.0398 19.7415 62.3751 20.5046 60.5782 20.5046C57.2551 20.5046 56.9351 17.8461 56.9351 17.8461H52.9229C52.9229 20.4554 55.1136 24 60.3567 24C64.2705 24 67.0767 22.0061 67.0767 18.8061C67.0767 15.1138 63.3597 14.2277 60.7259 13.5385C58.3628 12.9231 57.2551 12.6031 57.2551 11.7908C57.2551 10.8308 58.7321 10.2892 59.9382 10.2892C61.6613 10.2892 62.6459 11.4215 62.6459 12.2585H66.6582C66.6582 9.64923 64.3444 6.67078 59.9875 6.67078Z" fill="white"/>
<path d="M82.806 6.96619H78.769V23.7046H82.806V6.96619Z" fill="white"/>
<path d="M103.852 6.67078C98.5844 6.67078 94.769 10.6831 94.769 15.3354C94.769 19.84 98.3383 24 103.877 24C108.775 24 111.409 20.5538 111.532 20.3077V14.1046H102.867V17.2061H107.963V18.8307C107.077 19.6677 105.649 20.2338 103.852 20.2338C100.923 20.2338 98.8306 17.9446 98.8306 15.2861C98.8306 12.5046 100.874 10.4615 103.803 10.4615C105.723 10.4615 107.027 11.0523 107.864 12.1108L111.36 10.3385C109.686 8.12308 107.077 6.67078 103.852 6.67078Z" fill="white"/>
<path d="M139.667 6.96619H135.606V17.1815L127.138 6.96619H123.077V23.7046H127.138V13.4646L135.606 23.7046H139.667V6.96619Z" fill="white"/>
<path d="M165.932 23.7046H170.24L163.052 6.96619H158.547L151.384 23.7046H155.667L156.775 21.0954H164.849L165.932 23.7046ZM158.178 17.7969L160.837 11.5446L163.446 17.7969H158.178Z" fill="white"/>
<path d="M188.135 4.6523C189.439 4.6523 190.473 3.59384 190.473 2.36307C190.473 1.05846 189.439 0 188.135 0C186.879 0 185.846 1.05846 185.846 2.36307C185.846 3.59384 186.879 4.6523 188.135 4.6523ZM195.027 4.6523C196.332 4.6523 197.39 3.59384 197.39 2.36307C197.39 1.05846 196.332 0 195.027 0C193.796 0 192.738 1.05846 192.738 2.36307C192.738 3.59384 193.796 4.6523 195.027 4.6523ZM196.75 23.7046H201.058L193.87 6.91691H189.341L182.153 23.7046H186.461L187.569 21.0953H195.667L196.75 23.7046ZM188.972 17.7723L191.63 11.4954L194.264 17.7723H188.972Z" fill="white"/>
<path d="M221.021 6.96619H212.922V23.7046H216.959V19.5446H219.913L222.424 23.7046H227.445L223.999 18.6585C225.796 17.6985 226.978 15.6554 226.978 13.2431C226.978 9.60003 224.418 6.96619 221.021 6.96619ZM220.455 10.7077C221.808 10.7077 222.916 11.8646 222.916 13.2431C222.916 14.6462 221.808 15.8031 220.43 15.8031H216.959V10.7077H220.455Z" fill="white"/>
</g>
<defs>
<clipPath id="clip0_2_17">
<rect width="227.692" height="24" fill="white"/>
</clipPath>
</defs>
</svg>
